<svg width="448" height="378" viewBox="0 0 448 378" fill="none" xmlns="http://www.w3.org/2000/svg">
<path d="M0 70.875C0 57.8074 14.3 47.25 32 47.25H416C433.7 47.25 448 57.8074 448 70.875C448 83.9426 433.7 94.5 416 94.5H32C14.3 94.5 0 83.9426 0 70.875ZM0 189C0 175.932 14.3 165.375 32 165.375H416C433.7 165.375 448 175.932 448 189C448 202.068 433.7 212.625 416 212.625H32C14.3 212.625 0 202.068 0 189ZM448 307.125C448 320.193 433.7 330.75 416 330.75H32C14.3 330.75 0 320.193 0 307.125C0 294.057 14.3 283.5 32 283.5H416C433.7 283.5 448 294.057 448 307.125Z" fill="white"/>
</svg>
