<svg width="85" height="85" viewBox="0 0 85 85" fill="none" xmlns="http://www.w3.org/2000/svg">
<circle cx="42.5" cy="42.5" r="42.5" fill="url(#paint0_linear_1261_162)"/>
<path d="M59.0754 27.5798C58.716 27.2896 58.2827 27.0996 57.8215 27.0298C57.3602 26.9601 56.8882 27.0132 56.4554 27.1836L26.5942 38.9285C26.1116 39.1217 25.7008 39.4534 25.4162 39.8794C25.1317 40.3054 24.9868 40.8056 25.0009 41.3137C25.015 41.8218 25.1874 42.3137 25.4952 42.7242C25.803 43.1346 26.2316 43.4441 26.7242 43.6116L33.1674 45.7907L36.659 57.0371C36.6657 57.0598 36.6874 57.0744 36.6974 57.0955C36.7333 57.1853 36.7859 57.2678 36.8524 57.3391C36.9534 57.449 37.0838 57.5294 37.229 57.5713C37.2457 57.5778 37.2573 57.5924 37.274 57.5957H37.284L37.289 57.5973C37.4179 57.6243 37.5519 57.6176 37.6773 57.5778C37.6907 57.5746 37.704 57.5746 37.719 57.5697C37.8394 57.5285 37.9484 57.4607 38.0373 57.3716C38.0473 57.3602 38.064 57.3586 38.074 57.3489L43.0956 51.9481L50.4238 57.4771C50.8688 57.8165 51.4171 58 51.9821 58C53.2055 58 54.2604 57.1654 54.5121 56.0011L59.9487 29.9912C60.0409 29.5496 60.0084 29.092 59.8546 28.667C59.7008 28.2421 59.4315 27.8658 59.0754 27.5782M38.4807 47.926L37.3023 53.507L34.844 45.5861L47.0355 39.3994L38.7073 47.5152C38.592 47.6274 38.5132 47.7703 38.4807 47.926ZM52.8788 55.6747C52.8475 55.822 52.7779 55.9589 52.6766 56.0724C52.5753 56.1858 52.4458 56.272 52.3005 56.3226C52.1587 56.3758 52.0051 56.3921 51.8549 56.3699C51.7047 56.3476 51.563 56.2877 51.4438 56.196L43.5056 50.2058C43.3396 50.081 43.1315 50.0217 42.9227 50.0398C42.7139 50.0578 42.5197 50.1519 42.3789 50.3032L38.884 54.0558L40.0606 48.4911L52.0421 36.816C52.1825 36.6788 52.2678 36.4973 52.2829 36.3042C52.2979 36.1111 52.2416 35.9192 52.1241 35.763C52.0066 35.6068 51.8357 35.4966 51.6422 35.4524C51.4487 35.4082 51.2453 35.4328 51.0688 35.5218L33.7974 44.2871L27.2692 42.0755C27.0961 42.0198 26.9451 41.9129 26.8373 41.7697C26.7294 41.6265 26.6701 41.4541 26.6675 41.2765C26.6592 41.0974 26.7083 40.9202 26.8081 40.7694C26.9078 40.6187 27.0532 40.502 27.2242 40.4354L57.0804 28.6905C57.2334 28.6272 57.4015 28.6067 57.5658 28.6314C57.7301 28.656 57.8841 28.7249 58.0104 28.8302C58.136 28.9292 58.2309 29.0603 58.2844 29.2088C58.338 29.3574 58.3481 29.5175 58.3137 29.6713L52.8788 55.6747Z" fill="white"/>
<defs>
<linearGradient id="paint0_linear_1261_162" x1="85" y1="8" x2="7" y2="72" gradientUnits="userSpaceOnUse">
<stop stop-color="#F94E6E"/>
<stop offset="1" stop-color="#FD8B4A"/>
</linearGradient>
</defs>
</svg>
