<svg width="62" height="62" viewBox="0 0 62 62" fill="none" xmlns="http://www.w3.org/2000/svg">
<g clip-path="url(#clip0_1244_58)">
<path d="M31 0C22.7802 0 14.8897 3.26808 9.08203 9.07961C3.26838 14.8934 0.0016104 22.7781 0 31C0 39.2184 3.26953 47.1089 9.08203 52.9204C14.8897 58.7319 22.7802 62 31 62C39.2198 62 47.1103 58.7319 52.918 52.9204C58.7305 47.1089 62 39.2184 62 31C62 22.7816 58.7305 14.8911 52.918 9.07961C47.1103 3.26808 39.2198 0 31 0Z" fill="url(#paint0_linear_1244_58)"/>
<path d="M14.0322 30.6726C23.0706 26.7356 29.0962 24.1398 32.109 22.8858C40.7212 19.3048 42.5086 18.6829 43.6759 18.6618C43.9326 18.6577 44.5042 18.7211 44.8772 19.0227C45.1872 19.277 45.2743 19.6209 45.3179 19.8623C45.3567 20.1035 45.41 20.6533 45.3664 21.0825C44.9014 25.9843 42.8815 37.8796 41.8547 43.37C41.4236 45.6931 40.5662 46.4719 39.7379 46.548C37.9361 46.7136 36.5701 45.3584 34.8264 44.2157C32.0994 42.4269 30.559 41.3138 27.9095 39.5686C24.8483 37.5517 26.8342 36.443 28.578 34.6314C29.0333 34.1572 36.9673 26.9424 37.1175 26.288C37.1369 26.2062 37.1562 25.901 36.9722 25.7402C36.7929 25.5789 36.5265 25.6341 36.3328 25.6777C36.0567 25.7397 31.7022 28.6208 23.2547 34.3204C22.0195 35.17 20.9006 35.5842 19.8931 35.5624C18.7887 35.5386 16.6575 34.9366 15.0736 34.4221C13.1361 33.791 11.5909 33.4573 11.7266 32.3854C11.7944 31.8274 12.5645 31.2563 14.0322 30.6726Z" fill="white"/>
</g>
<defs>
<linearGradient id="paint0_linear_1244_58" x1="31" y1="0" x2="31" y2="62" gradientUnits="userSpaceOnUse">
<stop stop-color="#F72C81"/>
<stop offset="1" stop-color="#FFB630"/>
</linearGradient>
<clipPath id="clip0_1244_58">
<rect width="62" height="62" fill="white"/>
</clipPath>
</defs>
</svg>
