<svg width="315" height="84" viewBox="0 0 315 84" fill="none" xmlns="http://www.w3.org/2000/svg">
<rect width="315" height="84" rx="42" fill="white"/>
<path d="M38.45 31.305H42.615V51.85H51.47V55H38.45V31.305ZM52.0248 46.705C52.0248 45.1417 52.2348 43.765 52.6548 42.575C53.0981 41.385 53.6931 40.3933 54.4398 39.6C55.2098 38.7833 56.1081 38.1767 57.1348 37.78C58.1615 37.36 59.2698 37.15 60.4598 37.15C61.5098 37.15 62.3965 37.2783 63.1198 37.535C63.8665 37.7917 64.4731 38.1417 64.9398 38.585C65.4065 39.0283 65.7448 39.5533 65.9548 40.16C66.1881 40.7667 66.3048 41.42 66.3048 42.12C66.3048 42.96 66.0715 43.765 65.6048 44.535C65.1381 45.2817 64.4615 45.9467 63.5748 46.53C62.7115 47.09 61.6615 47.545 60.4248 47.895C59.1881 48.2217 57.7998 48.3967 56.2598 48.42C56.3298 48.9567 56.4348 49.47 56.5748 49.96C56.7381 50.4267 56.9598 50.8467 57.2398 51.22C57.5431 51.57 57.9281 51.85 58.3948 52.06C58.8615 52.27 59.4448 52.375 60.1448 52.375C60.6581 52.375 61.2065 52.3167 61.7898 52.2C62.3731 52.0833 62.9098 51.9433 63.3998 51.78C63.9831 51.5933 64.5548 51.3833 65.1148 51.15L66.1648 53.635C65.5581 53.9383 64.9048 54.2067 64.2048 54.44C63.5981 54.65 62.8981 54.8367 62.1048 55C61.3115 55.1633 60.4715 55.245 59.5848 55.245C58.2315 55.245 57.0765 55.0467 56.1198 54.65C55.1631 54.23 54.3815 53.6467 53.7748 52.9C53.1681 52.1533 52.7248 51.255 52.4448 50.205C52.1648 49.155 52.0248 47.9883 52.0248 46.705ZM60.1448 39.88C59.3748 39.88 58.7331 40.0667 58.2198 40.44C57.7298 40.79 57.3331 41.2567 57.0298 41.84C56.7265 42.4 56.5048 43.0417 56.3648 43.765C56.2481 44.465 56.1781 45.1767 56.1548 45.9C57.2748 45.8533 58.2198 45.7133 58.9898 45.48C59.7831 45.2233 60.4248 44.92 60.9148 44.57C61.4048 44.1967 61.7548 43.8 61.9648 43.38C62.1981 42.96 62.3148 42.54 62.3148 42.12C62.3148 41.4433 62.1165 40.9067 61.7198 40.51C61.3231 40.09 60.7981 39.88 60.1448 39.88ZM83.6878 46.565C83.6878 47.965 83.7694 49.1433 83.9328 50.1C84.1194 51.0333 84.3178 51.7917 84.5278 52.375C84.7844 53.075 85.0644 53.6233 85.3678 54.02L82.2528 55.28C81.9494 54.9767 81.6694 54.615 81.4128 54.195C81.2028 53.8217 81.0044 53.3783 80.8178 52.865C80.6311 52.3283 80.5144 51.6983 80.4678 50.975C80.0711 52.375 79.4294 53.4367 78.5428 54.16C77.6794 54.86 76.5011 55.21 75.0078 55.21C73.9111 55.21 72.9544 55.0117 72.1378 54.615C71.3444 54.195 70.6794 53.6117 70.1428 52.865C69.6061 52.095 69.2094 51.1733 68.9528 50.1C68.6961 49.0267 68.5678 47.8367 68.5678 46.53C68.5678 45.2 68.7661 43.975 69.1628 42.855C69.5828 41.7117 70.1544 40.7317 70.8778 39.915C71.6244 39.0983 72.5111 38.4567 73.5378 37.99C74.5644 37.5233 75.6961 37.29 76.9328 37.29C77.6328 37.29 78.3561 37.3483 79.1028 37.465C79.8728 37.5583 80.5844 37.6633 81.2378 37.78C81.8911 37.8967 82.4394 38.0133 82.8828 38.13C83.3494 38.2233 83.6178 38.2817 83.6878 38.305V46.565ZM75.6728 52.41C76.2561 52.41 76.7928 52.2117 77.2828 51.815C77.7728 51.4183 78.1928 50.905 78.5428 50.275C78.9161 49.6217 79.1961 48.8867 79.3828 48.07C79.5928 47.23 79.6978 46.3783 79.6978 45.515V40.475C79.4644 40.405 79.1144 40.3233 78.6478 40.23C78.1811 40.1367 77.7611 40.09 77.3878 40.09C76.5011 40.09 75.7661 40.2417 75.1828 40.545C74.6228 40.8483 74.1678 41.2683 73.8178 41.805C73.4678 42.3417 73.2228 42.9833 73.0828 43.73C72.9428 44.4767 72.8728 45.2933 72.8728 46.18C72.8728 46.9967 72.8961 47.7783 72.9428 48.525C72.9894 49.2717 73.1061 49.9367 73.2928 50.52C73.5028 51.1033 73.7944 51.57 74.1678 51.92C74.5411 52.2467 75.0428 52.41 75.6728 52.41ZM95.5038 41.21C95.0838 41.21 94.6638 41.315 94.2438 41.525C93.8238 41.735 93.4505 42.0267 93.1238 42.4C92.7972 42.75 92.5288 43.1817 92.3188 43.695C92.1088 44.2083 92.0038 44.78 92.0038 45.41V55H88.0138V46.18C88.0138 44.78 87.9205 43.6133 87.7338 42.68C87.5472 41.7233 87.3488 40.9533 87.1388 40.37C86.8822 39.6933 86.6022 39.145 86.2988 38.725L89.4488 37.465C89.6588 37.7217 89.8805 38.0367 90.1138 38.41C90.3005 38.7367 90.4872 39.1217 90.6738 39.565C90.8605 40.0083 91.0122 40.5333 91.1288 41.14C91.5955 39.7867 92.2722 38.8183 93.1588 38.235C94.0455 37.6283 95.0488 37.325 96.1688 37.325C96.7055 37.325 97.2072 37.395 97.6738 37.535C98.1405 37.6517 98.3622 37.71 98.3388 37.71L97.2188 41.595C97.2422 41.595 97.1022 41.5367 96.7988 41.42C96.5188 41.28 96.0872 41.21 95.5038 41.21ZM111.469 55V43.695C111.469 42.715 111.294 41.9333 110.944 41.35C110.594 40.7433 109.999 40.44 109.159 40.44C108.622 40.44 108.097 40.58 107.584 40.86C107.094 41.1167 106.65 41.5017 106.254 42.015C105.857 42.5283 105.53 43.1583 105.274 43.905C105.04 44.6283 104.924 45.445 104.924 46.355V55H100.934V46.18C100.934 44.78 100.84 43.6133 100.654 42.68C100.467 41.7233 100.269 40.9533 100.059 40.37C99.8021 39.6933 99.5221 39.145 99.2188 38.725L102.369 37.465C102.602 37.7217 102.835 38.0367 103.069 38.41C103.255 38.7367 103.442 39.145 103.629 39.635C103.815 40.1017 103.967 40.6383 104.084 41.245C104.69 39.845 105.565 38.8417 106.709 38.235C107.852 37.605 109.054 37.29 110.314 37.29C112.11 37.29 113.405 37.8383 114.199 38.935C115.015 40.0083 115.424 41.4667 115.424 43.31V55H111.469ZM148.734 55V43.59C148.734 42.61 148.582 41.84 148.279 41.28C147.975 40.6967 147.45 40.405 146.704 40.405C146.26 40.405 145.805 40.5333 145.339 40.79C144.895 41.0233 144.487 41.3733 144.114 41.84C143.74 42.3067 143.437 42.8667 143.204 43.52C142.97 44.1733 142.854 44.8967 142.854 45.69V55H138.899V43.59C138.899 42.61 138.747 41.84 138.444 41.28C138.14 40.6967 137.615 40.405 136.869 40.405C136.402 40.405 135.935 40.545 135.469 40.825C135.025 41.0817 134.617 41.4667 134.244 41.98C133.894 42.4933 133.602 43.1233 133.369 43.87C133.159 44.5933 133.054 45.41 133.054 46.32V55H129.064V46.18C129.064 44.78 128.97 43.6133 128.784 42.68C128.597 41.7233 128.399 40.9533 128.189 40.37C127.932 39.6933 127.652 39.145 127.349 38.725L130.499 37.465C130.732 37.7217 130.965 38.0367 131.199 38.41C131.385 38.7367 131.572 39.145 131.759 39.635C131.945 40.1017 132.097 40.6383 132.214 41.245C132.797 39.845 133.614 38.8417 134.664 38.235C135.737 37.605 136.869 37.29 138.059 37.29C139.249 37.29 140.17 37.5933 140.824 38.2C141.5 38.8067 142.002 39.5883 142.329 40.545C142.959 39.3783 143.764 38.55 144.744 38.06C145.747 37.5467 146.797 37.29 147.894 37.29C148.804 37.29 149.562 37.4417 150.169 37.745C150.799 38.025 151.289 38.4333 151.639 38.97C152.012 39.4833 152.28 40.1133 152.444 40.86C152.607 41.5833 152.689 42.4 152.689 43.31V55H148.734ZM163.979 37.15C166.663 37.15 168.611 37.9433 169.824 39.53C171.038 41.1167 171.644 43.2983 171.644 46.075C171.644 47.3817 171.481 48.6067 171.154 49.75C170.828 50.87 170.326 51.85 169.649 52.69C168.996 53.5067 168.168 54.16 167.164 54.65C166.161 55.1167 164.994 55.35 163.664 55.35C162.334 55.35 161.179 55.1517 160.199 54.755C159.243 54.335 158.449 53.74 157.819 52.97C157.189 52.2 156.723 51.2667 156.419 50.17C156.139 49.0733 155.999 47.8367 155.999 46.46C155.999 45.13 156.163 43.905 156.489 42.785C156.816 41.6417 157.306 40.6617 157.959 39.845C158.636 39.005 159.476 38.3517 160.479 37.885C161.483 37.395 162.649 37.15 163.979 37.15ZM163.629 40.09C162.953 40.09 162.393 40.2417 161.949 40.545C161.529 40.8483 161.191 41.28 160.934 41.84C160.701 42.3767 160.538 43.0183 160.444 43.765C160.351 44.4883 160.304 45.27 160.304 46.11C160.304 46.9733 160.351 47.79 160.444 48.56C160.561 49.33 160.759 50.0067 161.039 50.59C161.319 51.15 161.693 51.5933 162.159 51.92C162.649 52.2467 163.268 52.41 164.014 52.41C164.691 52.41 165.239 52.2583 165.659 51.955C166.103 51.6517 166.441 51.2317 166.674 50.695C166.931 50.135 167.106 49.4933 167.199 48.77C167.293 48.0467 167.339 47.265 167.339 46.425C167.339 45.5617 167.281 44.745 167.164 43.975C167.071 43.205 166.884 42.5283 166.604 41.945C166.324 41.3617 165.939 40.9067 165.449 40.58C164.983 40.2533 164.376 40.09 163.629 40.09ZM182.935 41.21C182.515 41.21 182.095 41.315 181.675 41.525C181.255 41.735 180.882 42.0267 180.555 42.4C180.229 42.75 179.96 43.1817 179.75 43.695C179.54 44.2083 179.435 44.78 179.435 45.41V55H175.445V46.18C175.445 44.78 175.352 43.6133 175.165 42.68C174.979 41.7233 174.78 40.9533 174.57 40.37C174.314 39.6933 174.034 39.145 173.73 38.725L176.88 37.465C177.09 37.7217 177.312 38.0367 177.545 38.41C177.732 38.7367 177.919 39.1217 178.105 39.565C178.292 40.0083 178.444 40.5333 178.56 41.14C179.027 39.7867 179.704 38.8183 180.59 38.235C181.477 37.6283 182.48 37.325 183.6 37.325C184.137 37.325 184.639 37.395 185.105 37.535C185.572 37.6517 185.794 37.71 185.77 37.71L184.65 41.595C184.674 41.595 184.534 41.5367 184.23 41.42C183.95 41.28 183.519 41.21 182.935 41.21ZM185.941 46.705C185.941 45.1417 186.151 43.765 186.571 42.575C187.014 41.385 187.609 40.3933 188.356 39.6C189.126 38.7833 190.024 38.1767 191.051 37.78C192.077 37.36 193.186 37.15 194.376 37.15C195.426 37.15 196.312 37.2783 197.036 37.535C197.782 37.7917 198.389 38.1417 198.856 38.585C199.322 39.0283 199.661 39.5533 199.871 40.16C200.104 40.7667 200.221 41.42 200.221 42.12C200.221 42.96 199.987 43.765 199.521 44.535C199.054 45.2817 198.377 45.9467 197.491 46.53C196.627 47.09 195.577 47.545 194.341 47.895C193.104 48.2217 191.716 48.3967 190.176 48.42C190.246 48.9567 190.351 49.47 190.491 49.96C190.654 50.4267 190.876 50.8467 191.156 51.22C191.459 51.57 191.844 51.85 192.311 52.06C192.777 52.27 193.361 52.375 194.061 52.375C194.574 52.375 195.122 52.3167 195.706 52.2C196.289 52.0833 196.826 51.9433 197.316 51.78C197.899 51.5933 198.471 51.3833 199.031 51.15L200.081 53.635C199.474 53.9383 198.821 54.2067 198.121 54.44C197.514 54.65 196.814 54.8367 196.021 55C195.227 55.1633 194.387 55.245 193.501 55.245C192.147 55.245 190.992 55.0467 190.036 54.65C189.079 54.23 188.297 53.6467 187.691 52.9C187.084 52.1533 186.641 51.255 186.361 50.205C186.081 49.155 185.941 47.9883 185.941 46.705ZM194.061 39.88C193.291 39.88 192.649 40.0667 192.136 40.44C191.646 40.79 191.249 41.2567 190.946 41.84C190.642 42.4 190.421 43.0417 190.281 43.765C190.164 44.465 190.094 45.1767 190.071 45.9C191.191 45.8533 192.136 45.7133 192.906 45.48C193.699 45.2233 194.341 44.92 194.831 44.57C195.321 44.1967 195.671 43.8 195.881 43.38C196.114 42.96 196.231 42.54 196.231 42.12C196.231 41.4433 196.032 40.9067 195.636 40.51C195.239 40.09 194.714 39.88 194.061 39.88Z" fill="#070707"/>
<g clip-path="url(#clip0_1244_56)">
<path d="M270 11C261.78 11 253.89 14.2681 248.082 20.0796C242.268 25.8934 239.002 33.7781 239 42C239 50.2184 242.27 58.1089 248.082 63.9204C253.89 69.7319 261.78 73 270 73C278.22 73 286.11 69.7319 291.918 63.9204C297.73 58.1089 301 50.2184 301 42C301 33.7816 297.73 25.8911 291.918 20.0796C286.11 14.2681 278.22 11 270 11Z" fill="url(#paint0_linear_1244_56)"/>
<path d="M253.032 41.6726C262.071 37.7356 268.096 35.1398 271.109 33.8858C279.721 30.3048 281.509 29.6829 282.676 29.6618C282.933 29.6577 283.504 29.7211 283.877 30.0227C284.187 30.277 284.274 30.6209 284.318 30.8623C284.357 31.1035 284.41 31.6533 284.366 32.0825C283.901 36.9843 281.882 48.8796 280.855 54.37C280.424 56.6931 279.566 57.4719 278.738 57.548C276.936 57.7136 275.57 56.3584 273.826 55.2157C271.099 53.4269 269.559 52.3138 266.91 50.5686C263.848 48.5517 265.834 47.443 267.578 45.6314C268.033 45.1572 275.967 37.9424 276.117 37.288C276.137 37.2062 276.156 36.901 275.972 36.7402C275.793 36.5789 275.527 36.6341 275.333 36.6777C275.057 36.7397 270.702 39.6208 262.255 45.3204C261.02 46.17 259.901 46.5842 258.893 46.5624C257.789 46.5386 255.657 45.9366 254.074 45.4221C252.136 44.791 250.591 44.4573 250.727 43.3854C250.794 42.8274 251.565 42.2563 253.032 41.6726Z" fill="white"/>
</g>
<defs>
<linearGradient id="paint0_linear_1244_56" x1="270" y1="11" x2="270" y2="73" gradientUnits="userSpaceOnUse">
<stop stop-color="#F72C81"/>
<stop offset="1" stop-color="#FFB630"/>
</linearGradient>
<clipPath id="clip0_1244_56">
<rect width="62" height="62" fill="white" transform="translate(239 11)"/>
</clipPath>
</defs>
</svg>
