<svg width="253" height="75" viewBox="0 0 253 75" fill="none" xmlns="http://www.w3.org/2000/svg">
<path d="M89.666 26.889H96.761V50.797H106.995V56H89.666V26.889ZM114.391 56.172C112.757 56.172 111.439 55.7563 110.435 54.925C109.432 54.065 108.93 52.861 108.93 51.313V34.414H115.724V49.378C115.724 50.0373 115.825 50.4817 116.025 50.711C116.226 50.9403 116.527 51.055 116.928 51.055C117.158 51.055 117.387 51.0407 117.616 51.012C117.846 50.9547 117.989 50.9117 118.046 50.883L118.648 55.14C118.62 55.1687 118.491 55.2403 118.261 55.355C118.032 55.441 117.731 55.5557 117.358 55.699C116.986 55.8137 116.541 55.914 116.025 56C115.509 56.1147 114.965 56.172 114.391 56.172ZM112.413 24.051C113.617 24.051 114.535 24.4093 115.165 25.126C115.796 25.8427 116.111 26.7457 116.111 27.835C116.111 28.953 115.782 29.8847 115.122 30.63C114.492 31.3753 113.531 31.748 112.241 31.748C111.037 31.748 110.106 31.3897 109.446 30.673C108.816 29.9277 108.5 29.0533 108.5 28.05C108.5 26.9033 108.83 25.9573 109.489 25.212C110.149 24.438 111.123 24.051 112.413 24.051ZM124.761 58.193C126.022 58.623 127.112 58.9527 128.029 59.182C128.975 59.44 129.978 59.569 131.039 59.569C132.186 59.569 133.103 59.2393 133.791 58.58C134.508 57.9207 134.866 56.9747 134.866 55.742C134.866 54.4233 134.665 53.248 134.264 52.216C133.777 53.506 133.06 54.5093 132.114 55.226C131.168 55.914 129.935 56.258 128.416 56.258C127.011 56.258 125.779 56 124.718 55.484C123.686 54.968 122.826 54.2513 122.138 53.334C121.45 52.388 120.934 51.2557 120.59 49.937C120.275 48.6183 120.117 47.1563 120.117 45.551C120.117 43.917 120.375 42.3977 120.891 40.993C121.436 39.5883 122.181 38.3843 123.127 37.381C124.073 36.349 125.205 35.5463 126.524 34.973C127.843 34.3997 129.305 34.113 130.91 34.113C131.77 34.113 132.659 34.1703 133.576 34.285C134.522 34.3997 135.396 34.5287 136.199 34.672C137.03 34.8153 137.747 34.9587 138.349 35.102C138.98 35.2167 139.395 35.3027 139.596 35.36L139.424 46.067C139.424 46.9843 139.496 47.8443 139.639 48.647C139.811 49.421 139.983 50.195 140.155 50.969C140.356 51.7143 140.542 52.4883 140.714 53.291C140.886 54.0937 140.972 54.9537 140.972 55.871C140.972 58.881 140.112 61.1887 138.392 62.794C136.701 64.428 134.393 65.245 131.469 65.245C130.15 65.245 128.774 65.0873 127.341 64.772C125.908 64.4567 124.517 64.0123 123.17 63.439L124.761 58.193ZM129.534 51.27C129.993 51.27 130.408 51.0837 130.781 50.711C131.154 50.3097 131.483 49.7793 131.77 49.12C132.057 48.4607 132.272 47.701 132.415 46.841C132.587 45.981 132.673 45.078 132.673 44.132V39.445C132.472 39.359 132.186 39.2873 131.813 39.23C131.469 39.144 131.168 39.101 130.91 39.101C130.222 39.101 129.649 39.2587 129.19 39.574C128.731 39.8607 128.359 40.2763 128.072 40.821C127.814 41.337 127.628 41.9677 127.513 42.713C127.398 43.4583 127.341 44.261 127.341 45.121C127.341 45.9237 127.355 46.6977 127.384 47.443C127.413 48.1597 127.499 48.8047 127.642 49.378C127.814 49.9513 128.043 50.41 128.33 50.754C128.617 51.098 129.018 51.27 129.534 51.27ZM151.381 36.048C152.126 35.3887 152.986 34.9013 153.961 34.586C154.935 34.2707 155.953 34.113 157.014 34.113C159.25 34.113 160.841 34.7867 161.787 36.134C162.733 37.4813 163.206 39.3017 163.206 41.595V56H156.369V42.584C156.369 41.5807 156.24 40.778 155.982 40.176C155.752 39.5453 155.308 39.23 154.649 39.23C154.276 39.23 153.889 39.359 153.488 39.617C153.115 39.8463 152.771 40.2047 152.456 40.692C152.14 41.1507 151.882 41.724 151.682 42.412C151.481 43.0713 151.381 43.8167 151.381 44.648V56H144.587V25.986L151.381 24.825V36.048ZM165.871 34.586H169.397L170.128 30.157L176.019 28.867V34.586H181.093L180.276 39.574H176.019V49.163C176.019 50.4243 176.679 51.055 177.997 51.055C178.714 51.055 179.402 50.9833 180.061 50.84C180.405 50.754 180.749 50.668 181.093 50.582L182.254 55.14C181.681 55.3407 180.878 55.57 179.846 55.828C178.843 56.0573 177.61 56.172 176.148 56.172C173.998 56.172 172.307 55.7277 171.074 54.839C169.87 53.9503 169.268 52.4453 169.268 50.324V39.574H165.871V34.586ZM193.498 26.889H199.819L210.483 56H203.302L201.152 48.991H191.735L189.499 56H182.447L193.498 26.889ZM199.561 43.745C199.275 42.9137 198.974 42.0537 198.658 41.165C198.372 40.2477 198.085 39.359 197.798 38.499C197.54 37.639 197.297 36.8363 197.067 36.091C196.838 35.317 196.637 34.672 196.465 34.156C196.293 34.7007 196.093 35.36 195.863 36.134C195.634 36.8793 195.376 37.682 195.089 38.542C194.831 39.402 194.545 40.2763 194.229 41.165C193.943 42.0537 193.656 42.9137 193.369 43.745H199.561ZM223.616 40.606C223.301 40.606 222.957 40.692 222.584 40.864C222.211 41.036 221.853 41.3083 221.509 41.681C221.165 42.025 220.878 42.4837 220.649 43.057C220.42 43.6017 220.305 44.261 220.305 45.035V56H213.511V44.82C213.511 43.1 213.382 41.681 213.124 40.563C212.895 39.4163 212.622 38.4847 212.307 37.768C211.963 36.9653 211.576 36.3203 211.146 35.833L216.607 34.113C216.836 34.3997 217.08 34.7293 217.338 35.102C217.539 35.4173 217.754 35.8187 217.983 36.306C218.212 36.7933 218.399 37.3523 218.542 37.983C219.259 36.607 220.104 35.618 221.079 35.016C222.082 34.414 223.258 34.113 224.605 34.113C225.207 34.113 225.737 34.1703 226.196 34.285C226.683 34.371 227.085 34.4713 227.4 34.586L225.637 41.079C225.436 40.9643 225.164 40.864 224.82 40.778C224.505 40.6633 224.103 40.606 223.616 40.606ZM228.398 34.586H231.924L232.655 30.157L238.546 28.867V34.586H243.62L242.803 39.574H238.546V49.163C238.546 50.4243 239.205 51.055 240.524 51.055C241.24 51.055 241.928 50.9833 242.588 50.84C242.932 50.754 243.276 50.668 243.62 50.582L244.781 55.14C244.207 55.3407 243.405 55.57 242.373 55.828C241.369 56.0573 240.137 56.172 238.675 56.172C236.525 56.172 234.833 55.7277 233.601 54.839C232.397 53.9503 231.795 52.4453 231.795 50.324V39.574H228.398V34.586Z" fill="white"/>
<path fill-rule="evenodd" clip-rule="evenodd" d="M13.9535 0C6.24719 0 0 6.24719 0 13.9535V45.3488C0 53.0551 6.24719 59.3023 13.9535 59.3023H15.6977V61.0465C15.6977 68.7528 21.9449 75 29.6512 75H61.0465C68.7528 75 75 68.7528 75 61.0465V29.6512C75 21.9449 68.7528 15.6977 61.0465 15.6977H59.3023V13.9535C59.3023 6.24719 53.0551 0 45.3488 0H13.9535ZM59.3023 15.6977H29.6512C21.9449 15.6977 15.6977 21.9449 15.6977 29.6512V59.3023H45.3488C53.0551 59.3023 59.3023 53.0551 59.3023 45.3488V15.6977Z" fill="url(#paint0_linear_1256_128)"/>
<defs>
<linearGradient id="paint0_linear_1256_128" x1="75" y1="0" x2="5.24521e-07" y2="61" gradientUnits="userSpaceOnUse">
<stop stop-color="#F8397A"/>
<stop offset="1" stop-color="#FD9743"/>
</linearGradient>
</defs>
</svg>
