<svg width="397" height="375" viewBox="0 0 397 375" fill="none" xmlns="http://www.w3.org/2000/svg">
<path d="M265.273 259.255C265.273 259.255 259.761 262.367 256.696 263.25C255.051 261.442 252.864 260.16 250.432 259.578C248 258.997 245.44 259.143 243.098 259.998C240.756 260.852 238.745 262.374 237.337 264.356C235.929 266.339 235.192 268.687 235.225 271.083V273.695C230.425 273.814 225.668 272.796 221.379 270.732C217.089 268.668 213.4 265.622 210.64 261.866C210.64 261.866 199.714 285.367 224.299 295.811C218.673 299.462 211.971 301.292 205.177 301.034C229.762 314.089 259.81 301.034 259.81 271.005C259.81 270.279 259.733 269.553 259.591 268.838C262.377 266.211 265.273 259.255 265.273 259.255Z" stroke="white" stroke-width="1.5" stroke-linecap="round" stroke-linejoin="round"/>
<path d="M64 208.345C66.9536 209.899 88.3339 221.63 103.537 212.589C118.74 203.547 117.901 187.969 117.901 180.831C119.279 178.085 122.188 176.689 122.188 169.255C119.33 171.768 116.49 172.623 113.666 171.82C110.901 167.806 107.095 166.03 102.25 166.494C94.9825 167.189 92.3236 173.976 93.1061 182.756C81.9003 188.15 73.1133 178.846 68.5849 171.82C67.0718 177.353 65.6129 183.997 68.5849 191.346C70.5662 196.245 75.329 200.387 82.8734 203.771C75.2277 207.716 68.9365 209.24 64 208.345Z" fill="#2F88FF" stroke="white" stroke-width="4" stroke-linejoin="round"/>
<path d="M137.025 268.893C136.323 268.893 135.637 269.09 135.053 269.458C134.47 269.826 134.015 270.35 133.746 270.962C133.478 271.575 133.408 272.249 133.545 272.899C133.681 273.549 134.019 274.146 134.516 274.615C135.012 275.084 135.644 275.403 136.333 275.532C137.021 275.662 137.734 275.595 138.383 275.342C139.031 275.088 139.585 274.658 139.975 274.107C140.365 273.556 140.573 272.908 140.573 272.245C140.573 271.356 140.2 270.503 139.534 269.875C138.869 269.246 137.966 268.893 137.025 268.893ZM150.628 275.653C150.57 273.335 150.11 271.042 149.267 268.865C148.515 267.002 147.345 265.316 145.837 263.921C144.373 262.489 142.583 261.391 140.603 260.709C138.304 259.888 135.874 259.444 133.417 259.396C130.283 259.229 129.277 259.229 121.234 259.229C113.191 259.229 112.185 259.229 109.051 259.396C106.594 259.444 104.164 259.888 101.865 260.709C99.8888 261.398 98.1005 262.495 96.631 263.921C95.1153 265.304 93.9524 266.995 93.2303 268.865C92.3614 271.036 91.8914 273.332 91.8405 275.653C91.6631 278.613 91.6631 279.563 91.6631 287.161C91.6631 294.758 91.6631 295.708 91.8405 298.669C91.8914 300.99 92.3614 303.285 93.2303 305.456C93.9524 307.327 95.1153 309.017 96.631 310.4C98.1005 311.826 99.8888 312.924 101.865 313.613C104.164 314.433 106.594 314.877 109.051 314.925C112.185 315.093 113.191 315.093 121.234 315.093C129.277 315.093 130.283 315.093 133.417 314.925C135.874 314.877 138.304 314.433 140.603 313.613C142.583 312.931 144.373 311.832 145.837 310.4C147.352 309.011 148.523 307.323 149.267 305.456C150.11 303.279 150.57 300.986 150.628 298.669C150.628 295.708 150.805 294.758 150.805 287.161C150.805 279.563 150.805 278.613 150.628 275.653ZM145.305 298.334C145.283 300.107 144.943 301.863 144.299 303.529C143.827 304.745 143.069 305.843 142.082 306.741C141.122 307.664 139.962 308.379 138.681 308.836C136.918 309.444 135.058 309.766 133.181 309.786C130.224 309.926 129.129 309.953 121.352 309.953C113.575 309.953 112.481 309.953 109.524 309.786C107.575 309.82 105.634 309.537 103.787 308.948C102.562 308.468 101.455 307.755 100.534 306.853C99.5529 305.956 98.804 304.856 98.3461 303.641C97.6242 301.951 97.2237 300.155 97.1633 298.334C97.1633 295.54 96.9859 294.507 96.9859 287.161C96.9859 279.815 96.9859 278.781 97.1633 275.988C97.1765 274.175 97.5269 272.379 98.1983 270.681C98.7188 269.502 99.5179 268.451 100.534 267.608C101.433 266.648 102.543 265.885 103.787 265.374C105.59 264.759 107.489 264.438 109.406 264.424C112.363 264.424 113.457 264.256 121.234 264.256C129.011 264.256 130.105 264.256 133.062 264.424C134.939 264.444 136.799 264.765 138.563 265.374C139.906 265.845 141.112 266.611 142.082 267.608C143.051 268.466 143.808 269.515 144.299 270.681C144.957 272.382 145.297 274.177 145.305 275.988C145.453 278.781 145.482 279.815 145.482 287.161C145.482 294.507 145.453 295.54 145.305 298.334ZM121.234 272.832C118.235 272.837 115.305 273.682 112.814 275.26C110.323 276.838 108.384 279.078 107.24 281.697C106.096 284.315 105.8 287.196 106.389 289.973C106.977 292.751 108.425 295.302 110.547 297.303C112.67 299.304 115.373 300.666 118.315 301.217C121.257 301.767 124.305 301.482 127.076 300.397C129.846 299.311 132.213 297.475 133.879 295.119C135.545 292.763 136.433 289.994 136.433 287.161C136.437 285.276 136.047 283.408 135.284 281.666C134.521 279.924 133.401 278.342 131.989 277.01C130.576 275.679 128.899 274.624 127.053 273.907C125.207 273.19 123.23 272.824 121.234 272.832ZM121.234 296.462C119.286 296.462 117.383 295.917 115.763 294.895C114.144 293.873 112.882 292.42 112.136 290.72C111.391 289.021 111.196 287.15 111.576 285.346C111.956 283.542 112.894 281.884 114.271 280.584C115.648 279.283 117.403 278.397 119.313 278.038C121.223 277.679 123.203 277.863 125.002 278.567C126.802 279.271 128.34 280.464 129.422 281.993C130.504 283.523 131.081 285.321 131.081 287.161C131.081 288.382 130.826 289.592 130.332 290.72C129.837 291.849 129.111 292.874 128.197 293.738C127.283 294.602 126.197 295.287 125.002 295.754C123.808 296.222 122.527 296.462 121.234 296.462Z" fill="white"/>
<path d="M130.017 105.151C131.839 105.151 133.214 106.661 132.479 109.468L123.558 149.172C122.935 151.995 121.128 152.674 118.634 151.361L97.3557 136.521C97.2732 136.465 97.206 136.392 97.1596 136.306C97.1132 136.221 97.089 136.127 97.089 136.031C97.089 135.935 97.1132 135.84 97.1596 135.755C97.206 135.67 97.2732 135.596 97.3557 135.54L121.928 114.586C123.047 113.65 121.688 113.197 120.217 114.043L89.3783 132.415C89.2848 132.473 89.1786 132.509 89.0678 132.522C88.957 132.535 88.8445 132.525 88.7388 132.49L75.6456 128.581C72.736 127.78 72.736 125.893 76.301 124.55L128.69 105.468C129.105 105.28 129.557 105.172 130.017 105.151Z" stroke="white" stroke-linecap="round" stroke-linejoin="round"/>
<path d="M332.391 199.82C331.784 199.339 331.052 199.024 330.273 198.908C329.493 198.793 328.696 198.881 327.964 199.163L277.506 218.622C276.69 218.942 275.996 219.491 275.515 220.197C275.035 220.903 274.79 221.731 274.814 222.573C274.837 223.415 275.129 224.23 275.649 224.91C276.169 225.59 276.893 226.103 277.725 226.38L288.613 229.99L294.513 248.623C294.524 248.661 294.561 248.685 294.578 248.72C294.639 248.868 294.727 249.005 294.84 249.123C295.01 249.305 295.231 249.439 295.476 249.508C295.504 249.519 295.524 249.543 295.552 249.548H295.569L295.578 249.551C295.795 249.596 296.022 249.585 296.234 249.519C296.256 249.513 296.279 249.513 296.304 249.505C296.508 249.437 296.692 249.325 296.842 249.177C296.859 249.158 296.887 249.156 296.904 249.139L305.389 240.192L317.772 249.352C318.524 249.914 319.451 250.218 320.406 250.218C322.473 250.218 324.255 248.835 324.681 246.906L333.867 203.815C334.023 203.083 333.968 202.325 333.708 201.621C333.448 200.917 332.993 200.293 332.391 199.817M297.591 233.528L295.6 242.774L291.446 229.651L312.047 219.402L297.974 232.847C297.779 233.033 297.646 233.27 297.591 233.528ZM321.921 246.366C321.868 246.61 321.75 246.837 321.579 247.025C321.408 247.213 321.189 247.355 320.943 247.439C320.704 247.527 320.444 247.554 320.191 247.517C319.937 247.481 319.697 247.381 319.496 247.229L306.082 237.305C305.802 237.098 305.45 237 305.097 237.03C304.744 237.06 304.416 237.216 304.178 237.467L298.273 243.684L300.261 234.464L320.507 215.122C320.744 214.894 320.888 214.594 320.914 214.274C320.939 213.954 320.844 213.636 320.645 213.377C320.447 213.118 320.158 212.936 319.831 212.862C319.504 212.789 319.161 212.83 318.862 212.977L289.678 227.499L278.646 223.835C278.354 223.743 278.099 223.566 277.917 223.329C277.734 223.091 277.634 222.806 277.63 222.512C277.616 222.215 277.699 221.921 277.867 221.671C278.036 221.422 278.281 221.228 278.57 221.118L329.02 201.66C329.279 201.555 329.563 201.521 329.841 201.562C330.118 201.603 330.378 201.717 330.592 201.891C330.804 202.055 330.964 202.272 331.055 202.518C331.145 202.764 331.163 203.03 331.104 203.285L321.921 246.366Z" fill="white"/>
<path d="M159.708 236.402V212.224M210.901 205.316V232.948C210.901 237.528 208.974 241.921 205.546 245.16C202.117 248.399 197.467 250.218 192.618 250.218H163.365C158.516 250.218 153.865 248.399 150.437 245.16C147.008 241.921 145.082 237.528 145.082 232.948V205.316C145.082 200.736 147.008 196.343 150.437 193.105C153.865 189.866 158.516 188.046 163.365 188.046H192.618C197.467 188.046 202.117 189.866 205.546 193.105C208.974 196.343 210.901 200.736 210.901 205.316Z" stroke="white" stroke-width="1.5" stroke-linecap="round" stroke-linejoin="round"/>
<path d="M174.334 236.402V225.177M174.334 225.177V212.224M174.334 225.177C174.334 212.224 196.274 212.224 196.274 225.177V236.402M159.708 201.897L159.745 201.859" stroke="white" stroke-width="1.5" stroke-linecap="round" stroke-linejoin="round"/>
<path fill-rule="evenodd" clip-rule="evenodd" d="M264.564 79.9219C262.222 79.9219 259.976 80.8006 258.32 82.3646C256.664 83.9287 255.734 86.0501 255.734 88.262C255.734 90.4739 256.664 92.5953 258.32 94.1593C259.976 95.7234 262.222 96.6021 264.564 96.6021C266.905 96.6021 269.151 95.7234 270.807 94.1593C272.463 92.5953 273.393 90.4739 273.393 88.262C273.393 86.0501 272.463 83.9287 270.807 82.3646C269.151 80.8006 266.905 79.9219 264.564 79.9219ZM260.55 88.262C260.55 87.2566 260.973 86.2923 261.726 85.5814C262.478 84.8704 263.499 84.471 264.564 84.471C265.628 84.471 266.649 84.8704 267.401 85.5814C268.154 86.2923 268.577 87.2566 268.577 88.262C268.577 89.2674 268.154 90.2317 267.401 90.9426C266.649 91.6535 265.628 92.0529 264.564 92.0529C263.499 92.0529 262.478 91.6535 261.726 90.9426C260.973 90.2317 260.55 89.2674 260.55 88.262ZM255.734 100.393C255.734 99.7898 255.988 99.2113 256.439 98.7847C256.891 98.3581 257.504 98.1185 258.142 98.1185H270.985C271.624 98.1185 272.236 98.3581 272.688 98.7847C273.139 99.2113 273.393 99.7898 273.393 100.393V139.819C273.393 140.422 273.139 141.001 272.688 141.427C272.236 141.854 271.624 142.094 270.985 142.094H258.142C257.504 142.094 256.891 141.854 256.439 141.427C255.988 141.001 255.734 140.422 255.734 139.819V100.393ZM260.55 102.668V137.544H268.577V102.668H260.55ZM278.209 100.393C278.209 99.7898 278.463 99.2113 278.914 98.7847C279.366 98.3581 279.978 98.1185 280.617 98.1185H293.46C294.098 98.1185 294.711 98.3581 295.162 98.7847C295.614 99.2113 295.868 99.7898 295.868 100.393V101.709L297.264 101.142C299.672 100.17 302.227 99.5612 304.835 99.3377C313.745 98.5734 321.553 105.185 321.553 113.677V139.819C321.553 140.422 321.3 141.001 320.848 141.427C320.396 141.854 319.784 142.094 319.145 142.094H306.302C305.664 142.094 305.051 141.854 304.6 141.427C304.148 141.001 303.894 140.422 303.894 139.819V118.59C303.894 117.584 303.472 116.62 302.719 115.909C301.966 115.198 300.946 114.799 299.881 114.799C298.817 114.799 297.796 115.198 297.043 115.909C296.291 116.62 295.868 117.584 295.868 118.59V139.819C295.868 140.422 295.614 141.001 295.162 141.427C294.711 141.854 294.098 142.094 293.46 142.094H280.617C279.978 142.094 279.366 141.854 278.914 141.427C278.463 141.001 278.209 140.422 278.209 139.819V100.393ZM283.025 102.668V137.544H291.052V118.59C291.052 116.378 291.982 114.256 293.638 112.692C295.294 111.128 297.539 110.25 299.881 110.25C302.223 110.25 304.469 111.128 306.124 112.692C307.78 114.256 308.711 116.378 308.711 118.59V137.544H316.737V113.677C316.737 107.902 311.404 103.341 305.275 103.869C303.169 104.05 301.107 104.541 299.162 105.324L294.41 107.25C294.044 107.399 293.644 107.459 293.246 107.426C292.849 107.392 292.467 107.266 292.134 107.059C291.801 106.851 291.528 106.569 291.339 106.237C291.15 105.905 291.051 105.534 291.052 105.158V102.668H283.025Z" fill="white"/>
<path d="M274.812 157.411H264.146C259.431 157.411 254.909 159.191 251.575 162.359C248.241 165.528 246.368 169.825 246.368 174.306V184.442H235.702V197.958H246.368V224.989H260.59V197.958H271.257L274.812 184.442H260.59V174.306C260.59 173.409 260.965 172.55 261.632 171.916C262.298 171.283 263.203 170.927 264.146 170.927H274.812V157.411Z" stroke="white" stroke-width="1.5" stroke-linecap="round" stroke-linejoin="round"/>
<path d="M190.392 176.333C185.945 176.333 181.541 175.506 177.433 173.898C173.324 172.291 169.591 169.935 166.447 166.964C163.302 163.994 160.808 160.468 159.106 156.587C157.404 152.706 156.528 148.547 156.528 144.346C156.528 140.146 157.404 135.986 159.106 132.105C160.808 128.225 163.302 124.698 166.447 121.728C169.591 118.758 173.324 116.402 177.433 114.794C181.541 113.187 185.945 112.359 190.392 112.359C199.373 112.359 207.986 115.729 214.337 121.728C220.688 127.727 224.255 135.863 224.255 144.346C224.255 152.83 220.688 160.966 214.337 166.964C207.986 172.963 199.373 176.333 190.392 176.333ZM190.392 176.333V139.777C190.392 137.353 191.411 135.028 193.226 133.314C195.04 131.6 197.501 130.638 200.067 130.638H202.486M178.298 148.916H202.486" stroke="white"/>
<path d="M178.053 79.6948L195.097 61H191.058L176.262 77.2318L164.439 61H150.805L168.681 85.5479L150.805 105.151H154.845L170.472 88.0078L182.958 105.151H196.592L178.053 79.6948ZM172.522 85.7624L170.711 83.3183L156.299 63.8698H162.503L174.131 79.5655L175.942 82.0095L191.061 102.414H184.857L172.522 85.7624Z" fill="white"/>
</svg>
